# xmcd
#
# Track frame offsets:
# 150
# 10607
# 26566
# 37782
# 52191
# 65092
# 78419
# 90690
# 108119
# 119661
# 134090
# 151806
# 164543
# 178007
# 189964
# 207058
# 222847
# 240764
# 262513
# 279924
# 293466
#
# Disc length: 4166 seconds
#
#
# Revision: 0
# Processed by: cddbd v1.5.1PL0 Copyright (c) Steve Scherf et al.
# Submitted via: FreeRIP 2.90 
#
DISCID=11104415
DTITLE=Dusty Springfield - Dusty In Memphis
DYEAR=1900
DGENRE=Soul
TTITLE0=Just A Little Lovin'
TTITLE1=So Much Love
TTITLE2=Son of a Preacher Man
TTITLE3=I Don't Want to Hear It Anymore
TTITLE4=Don't Forget About Me
TTITLE5=Breakfast in Bed
TTITLE6=Just One Smile
TTITLE7=Windmills of Your Mind
TTITLE8=In the Land of Make Believe
TTITLE9=No Easy Way Down
TTITLE10=I Can't Make It Alone
TTITLE11=Willi And Laura Mae Jones
TTITLE12=That Old Sweet Roll
TTITLE13=What Do You Do When Love Dies
TTITLE14=Don't Know Why
TTITLE15=Never So Lonely
TTITLE16=Red Umbrella
TTITLE17=Have A Heart
TTITLE18=Thing Called Love
TTITLE19=If You Only Knew
TTITLE20=You
EXTD=
EXTT0=
EXTT1=
EXTT2=
EXTT3=
EXTT4=
EXTT5=
EXTT6=
EXTT7=
EXTT8=
EXTT9=
EXTT10=
EXTT11=
EXTT12=
EXTT13=
EXTT14=
EXTT15=
EXTT16=
EXTT17=
EXTT18=
EXTT19=
EXTT20=
PLAYORDER=
